<svg xmlns="http://www.w3.org/2000/svg" width="1024" height="1024" p-id="7804" version="1.1" class="icon" style="fill: #C1C1C1">
 <g>
  <path stroke="null" id="svg_1" p-id="7805" fill="" d="m783.2,386.12l-171.88,0l0,381.63999l171.88,0l0,-381.63999z"/>
  <path id="svg_2" p-id="7806" fill="" d="m307.2,81.92l61.44,0l0,204.8l-61.44,0l0,-204.8zm0,737.28l61.44,0l0,163.84l-61.44,0l0,-163.84zm368.64,-614.4l61.44,0l0,122.88l-61.44,0l0,-122.88zm0,614.4l61.44,0l0,81.92l-61.44,0l0,-81.92z"/>
  <path id="svg_3" p-id="7807" fill="" d="m430.08,245.76a40.96,40.96 0 0 1 40.96,40.96l0,532.48a40.96,40.96 0 0 1 -40.96,40.96l-204.8,0a40.96,40.96 0 0 1 -40.96,-40.96l0,-532.48a40.96,40.96 0 0 1 40.96,-40.96l204.8,0zm-20.48,61.44l-163.84,0l0,491.52l163.84,0l0,-491.52zm389.12,20.48a40.96,40.96 0 0 1 40.96,40.96l0,409.6a40.96,40.96 0 0 1 -40.96,40.96l-204.8,0a40.96,40.96 0 0 1 -40.96,-40.96l0,-409.6a40.96,40.96 0 0 1 40.96,-40.96l204.8,0zm-20.48,61.44l-163.84,0l0,368.64l163.84,0l0,-368.64z"/>
  <path stroke="null" id="svg_4" p-id="7805" fill="" d="m412.2,296.12l-171.88,0l0,508.63996l171.88,0l0,-508.63996z"/>
 </g>
</svg>
